<svg width="53" height="53" viewBox="0 0 53 53" fill="none" xmlns="http://www.w3.org/2000/svg">
<rect width="53" height="53" fill="#ECECEC"/>
<path d="M33.8249 23.9682C33.8249 23.9682 33.2819 30.7032 32.9669 33.5402C32.8169 34.8952 31.9799 35.6892 30.6089 35.7142C27.9999 35.7612 25.3879 35.7642 22.7799 35.7092C21.4609 35.6822 20.6379 34.8782 20.4909 33.5472C20.1739 30.6852 19.6339 23.9682 19.6339 23.9682" stroke="#1E1E1E" stroke-width="1.5" stroke-linecap="round" stroke-linejoin="round"/>
<path d="M35.2082 20.7397H18.2502" stroke="#1E1E1E" stroke-width="1.5" stroke-linecap="round" stroke-linejoin="round"/>
<path d="M31.9407 20.7397C31.1557 20.7397 30.4797 20.1847 30.3257 19.4157L30.0827 18.1997C29.9327 17.6387 29.4247 17.2507 28.8457 17.2507H24.6127C24.0337 17.2507 23.5257 17.6387 23.3757 18.1997L23.1327 19.4157C22.9787 20.1847 22.3027 20.7397 21.5177 20.7397" stroke="#1E1E1E" stroke-width="1.5" stroke-linecap="round" stroke-linejoin="round"/>
</svg>
