<svg width="53" height="53" viewBox="0 0 53 53" fill="none" xmlns="http://www.w3.org/2000/svg">
<rect width="53" height="53" fill="#DD377D"/>
<path fill-rule="evenodd" clip-rule="evenodd" d="M20.9831 17.3153C17.3115 18.4974 15.6739 22.5057 16.9048 26.3295C17.5295 28.1301 18.5453 29.7485 19.88 31.0762C21.711 32.8545 23.7225 34.4194 25.8849 35.7491L26.1304 35.8961C26.3656 36.0369 26.6598 36.0344 26.8926 35.8897L27.1218 35.7473C29.2812 34.4194 31.2927 32.8545 33.1174 31.0824C34.4584 29.7485 35.4743 28.1301 36.0937 26.3452C37.3291 22.508 35.6847 18.4978 32.012 17.3153L31.7463 17.2362C30.0624 16.7731 28.273 17.0013 26.7645 17.8553L26.4964 18.0143L26.233 17.8562C24.6419 16.9534 22.7404 16.75 20.9831 17.3153ZM25.8746 19.3543L26.0714 19.4954C26.3307 19.6811 26.6806 19.6774 26.936 19.4863C28.266 18.4906 29.9873 18.2008 31.5641 18.7067C34.4097 19.6228 35.7047 22.781 34.7064 25.882C34.165 27.4417 33.2687 28.8696 32.0916 30.0405L31.5636 30.5421C30.141 31.8642 28.6026 33.061 26.9691 34.1156L26.5013 34.4098L26.644 34.4998C24.5805 33.2308 22.6537 31.7319 20.9058 30.0343C19.7351 28.8696 18.8388 27.4417 18.2921 25.8664C17.2981 22.778 18.5875 19.6221 21.4315 18.7065C22.9333 18.2234 24.5706 18.4629 25.8746 19.3543ZM30.3703 20.9837C29.9855 20.8609 29.5739 21.073 29.451 21.4575C29.3281 21.8419 29.5404 22.2532 29.9252 22.376C30.6814 22.6174 31.2206 23.298 31.2881 24.101C31.322 24.5031 31.6757 24.8017 32.0782 24.7679C32.4807 24.7341 32.7796 24.3807 32.7457 23.9785C32.6288 22.5886 31.6917 21.4055 30.3703 20.9837Z" fill="#FFF"/>
</svg>
